<svg xmlns="http://www.w3.org/2000/svg" version="1.1" xmlns:xlink="http://www.w3.org/1999/xlink" xmlns:svgjs="http://svgjs.dev/svgjs" width="1000" height="1000"><g clip-path="url(#SvgjsClipPath1396)"><rect width="1000" height="1000" fill="#e9e6df"></rect><g transform="matrix(1.6,0,0,1.6,100,136.77119199999996)"><svg xmlns="http://www.w3.org/2000/svg" version="1.1" xmlns:xlink="http://www.w3.org/1999/xlink" xmlns:svgjs="http://svgjs.dev/svgjs" width="500" height="454.03601"><svg width="500" height="454.03601" viewBox="0 0 132.29166 120.13036" version="1.1" id="svg1" inkscape:version="1.4 (e7c3feb100, 2024-10-09)" sodipodi:docname="logo-monicavaras.svg" xmlns:inkscape="http://www.inkscape.org/namespaces/inkscape" xmlns:sodipodi="http://sodipodi.sourceforge.net/DTD/sodipodi-0.dtd" xmlns="http://www.w3.org/2000/svg" xmlns:svg="http://www.w3.org/2000/svg">
  <sodipodi:namedview id="namedview1" pagecolor="#505050" bordercolor="#eeeeee" borderopacity="1" inkscape:showpageshadow="0" inkscape:pageopacity="0" inkscape:pagecheckerboard="0" inkscape:deskcolor="#505050" inkscape:document-units="mm" inkscape:zoom="1.0512062" inkscape:cx="187.87941" inkscape:cy="324.38926" inkscape:window-width="2560" inkscape:window-height="1383" inkscape:window-x="0" inkscape:window-y="0" inkscape:window-maximized="1" inkscape:current-layer="layer1"></sodipodi:namedview>
  <defs id="defs1">
    <clipPath clipPathUnits="userSpaceOnUse" id="clipPath2">
      <path d="M 0,1000 H 1000 V 0 H 0 Z" transform="translate(-744.20122,-214.15623)" id="path2"></path>
    </clipPath>
  <clipPath id="SvgjsClipPath1396"><rect width="1000" height="1000" x="0" y="0" rx="200" ry="200"></rect></clipPath></defs>
  <g inkscape:label="Layer 1" inkscape:groupmode="layer" id="layer1">
    <path id="path1" clip-path="url(#clipPath2)" style="fill:#4f4931;fill-opacity:1;fill-rule:nonzero;stroke:none" d="m -113.31058,711.68022 c -1.30444,0.1418 -2.58737,-0.24501 -3.69287,-1.53076 -13.929,-20.327 -93.66438,-40.13023 -118.08838,-45.78223 l 0.36914,-5.63086 42.03662,-15.84668 c -94.342,-44.211 -139.03275,-205.67898 -133.48975,-435.02198 l -247.99659,451.20704 c 0,0 -6.33101,9.28564 -10.81201,4.95264 -7.119,-7.754 -68.82051,-40.92514 -113.91651,-51.16114 l 0.37647,-5.64551 57.91113,-10.74609 11.87403,-21.06299 -20.90186,-407.40821 c -1.68,-32.464 -34.37272,-71.818442 -63.01172,-71.273442 l -0.52441,-6.506836 9.49365,0.625488 c 20.886,1.372 105.48529,5.313801 124.05029,-1.554199 l 6.167,7.686035 c -58.76,38.190004 -69.15072,36.702084 -65.53272,112.163084 l 16.70068,355.36818 254.792,-453.19044 55.06055,3.62109 -4.86475,74.09619 c -10.811,237.082 36.66618,414.09995 131.59718,449.46095 L -35.600617,122.397 C -15.381565,46.8205 5.1777815,-26.826784 27.501923,-90.465309 24.929923,-133.24031 -1.9560854,-128.19969 -1.9560854,-128.19969 l 0.3544922,-7.98193 c 0,0 108.9852832,7.45165 135.2592832,-3.83935 l 4.11914,7.28906 -28.43262,40.527831 c 34.83,137.507 70.48638,276.827319 105.33838,414.341319 21.299,142.246 3.17608,150.33102 -2.69092,162.52002 l -5.4082,1.54102 c 0,0 -50.89756,-14.68151 -58.64356,-40.79151 -0.7,-4.473 53.55765,-126.51913 46.78565,-174.80713 l -91.1001,-354.167 -7.602539,23.059571 -204.263681,724.315449 0.9712,-1.51172 c -3.169,19.206 -3.83125,30.44553 1.96875,43.76953 0,0 -4.09646,5.18936 -8.00977,5.61475 z" transform="matrix(0.14104295,0,0,-0.14104295,100.58863,100.38139)"></path>
  </g>
</svg></svg></g></g></svg>